<svg width="132" height="42" viewBox="0 0 132 42" fill="none" xmlns="http://www.w3.org/2000/svg">
<path d="M54.2102 32.8461L50.9215 39.2311C50.3931 40.2563 49.1944 40.2563 48.666 39.2311L34.6578 12.0397C34.0821 10.9213 34.7225 9.44656 35.7856 9.44656H42.3646C42.8204 9.44656 43.2447 9.73678 43.4908 10.2163L54.2165 31.0227C54.3562 31.3065 54.4283 31.6188 54.4272 31.9351C54.4261 32.2514 54.3519 32.5632 54.2102 32.8461Z" stroke="#232B30" strokeWidth="3" stroke-miterlimit="10"/>
<path d="M55.3208 32.8461L58.6095 39.2311C59.1379 40.2563 60.3351 40.2563 60.8635 39.2311L78.5641 4.87707C79.1399 3.75717 78.4995 2.28395 77.4363 2.28395H70.8574C70.4015 2.28395 69.9772 2.57418 69.7311 3.05369L55.3208 31.0227C55.1792 31.3057 55.1055 31.6179 55.1055 31.9344C55.1055 32.2509 55.1792 32.563 55.3208 32.8461Z" stroke="#232B30" strokeWidth="3" stroke-miterlimit="10"/>
<path d="M54.7654 11.505C57.9424 11.505 60.5179 8.92949 60.5179 5.75248C60.5179 2.57547 57.9424 0 54.7654 0C51.5884 0 49.0129 2.57547 49.0129 5.75248C49.0129 8.92949 51.5884 11.505 54.7654 11.505Z" fill="#232B30"/>
<path d="M54.7656 21.1171C56.0017 21.1171 57.0038 20.1151 57.0038 18.8789C57.0038 17.6428 56.0017 16.6407 54.7656 16.6407C53.5294 16.6407 52.5273 17.6428 52.5273 18.8789C52.5273 20.1151 53.5294 21.1171 54.7656 21.1171Z" fill="#232B30"/>
<path d="M11.8482 18.218H13.8892L8.29762 33.0369H6.06571L0.474121 18.218H2.53568L7.19192 30.9943L11.8482 18.218Z" fill="#232B30"/>
<path d="M15.6952 18.1754C15.6996 17.9209 15.7788 17.6734 15.9229 17.4636C16.067 17.2538 16.2697 17.091 16.5057 16.9956C16.7417 16.9002 17.0006 16.8764 17.25 16.9272C17.4994 16.9779 17.7284 17.1009 17.9084 17.2809C18.0884 17.4609 18.2114 17.6899 18.2621 17.9393C18.3129 18.1887 18.2891 18.4476 18.1937 18.6836C18.0983 18.9196 17.9356 19.1223 17.7258 19.2664C17.516 19.4105 17.2684 19.4897 17.0139 19.4941C16.8399 19.4968 16.6672 19.4646 16.506 19.3993C16.3448 19.3341 16.1983 19.237 16.0753 19.114C15.9523 18.991 15.8553 18.8446 15.79 18.6833C15.7247 18.5221 15.6925 18.3494 15.6952 18.1754ZM16.0107 21.3869H17.9461V33.0369H16.0139L16.0107 21.3869Z" fill="#232B30"/>
<path d="M28.3657 22.9594L22.6874 31.4423H28.4083V33.0369H20.4775V31.4423L26.1338 22.9594H20.5201V21.3821H28.3657V22.9594Z" fill="#232B30"/>
<path d="M83.6509 33.1852C80.5689 33.1852 78.1871 31.57 78.1445 28.7687H81.3339C81.419 29.958 82.2045 30.7451 83.5879 30.7451C84.9712 30.7451 85.8198 30.0006 85.8198 28.9375C85.8198 25.7276 78.1666 27.663 78.1871 22.2843C78.1871 19.6029 80.3559 17.9893 83.4175 17.9893C86.4791 17.9893 88.5406 19.5414 88.7315 22.2197H85.4586C85.3939 21.2417 84.6084 20.4767 83.3323 20.4562C82.1635 20.4137 81.2913 20.9862 81.2913 22.1992C81.2913 25.1756 88.9018 23.5162 88.9018 28.7466C88.9018 31.0811 87.0311 33.1852 83.6509 33.1852Z" fill="#9C9C9C"/>
<path d="M91.9413 23.7039H90.5391V21.2591H91.9413V18.3458H94.9382V21.2591H97.5739V23.7039H94.9398V29.4012C94.9398 30.1899 95.2552 30.5274 96.2016 30.5274H97.5834V33.0369H95.7048C93.4508 33.0369 91.9413 32.0795 91.9413 29.3791V23.7039Z" fill="#9C9C9C"/>
<path d="M104.336 21.0667C106.229 21.0667 107.525 21.9594 108.226 22.9389V21.2591H111.222V33.0369H108.226V31.3145C107.525 32.335 106.185 33.2278 104.314 33.2278C101.337 33.2278 98.9509 30.7829 98.9509 27.1046C98.9509 23.4263 101.337 21.0667 104.336 21.0667ZM105.101 23.6819C103.506 23.6819 101.997 24.8727 101.997 27.1046C101.997 29.3365 103.506 30.6126 105.101 30.6126C106.738 30.6126 108.226 29.3791 108.226 27.1425C108.226 24.9059 106.738 23.6819 105.101 23.6819Z" fill="#9C9C9C"/>
<path d="M114.602 23.7039H113.2V21.2591H114.602V18.3458H117.599V21.2591H120.235V23.7039H117.601V29.4012C117.601 30.1899 117.916 30.5274 118.855 30.5274H120.237V33.0369H118.366C116.112 33.0369 114.602 32.0795 114.602 29.3791V23.7039Z" fill="#9C9C9C"/>
<path d="M126.89 33.2278C123.935 33.2278 121.874 31.5054 121.746 29.316H124.743C124.85 30.2088 125.678 30.8934 126.869 30.8934C128.06 30.8934 128.677 30.3618 128.677 29.682C128.677 27.5778 122.022 28.917 122.022 24.6014C122.022 22.6456 123.757 21.0714 126.678 21.0714C129.527 21.0714 131.253 22.6235 131.41 24.9626H128.57C128.484 24.0478 127.762 23.4311 126.593 23.4311C125.489 23.4311 124.913 23.879 124.913 24.5588C124.913 26.7056 131.44 25.3664 131.525 29.682C131.525 31.7041 129.76 33.2278 126.89 33.2278Z" fill="#9C9C9C"/>
</svg>
